<mxfile host="app.diagrams.net" modified="2023-05-12T11:49:33.240Z" agent="Mozilla/5.0 (Windows NT 10.0; Win64; x64) AppleWebKit/537.36 (KHTML, like Gecko) Chrome/112.0.0.0 Safari/537.36" etag="4E-UF-yOLY14Bjocjjyr" version="21.2.9" type="device">
  <diagram id="C5RBs43oDa-KdzZeNtuy" name="Page-1">
    <mxGraphModel dx="1050" dy="541" grid="1" gridSize="10" guides="1" tooltips="1" connect="1" arrows="1" fold="1" page="1" pageScale="1" pageWidth="827" pageHeight="1169" math="0" shadow="0">
      <root>
        <mxCell id="WIyWlLk6GJQsqaUBKTNV-0" />
        <mxCell id="WIyWlLk6GJQsqaUBKTNV-1" parent="WIyWlLk6GJQsqaUBKTNV-0" />
        <mxCell id="fJRGCosen_SZIZIRIXQ9-2" value="" style="edgeStyle=orthogonalEdgeStyle;rounded=0;orthogonalLoop=1;jettySize=auto;html=1;" edge="1" parent="WIyWlLk6GJQsqaUBKTNV-1" source="fJRGCosen_SZIZIRIXQ9-0" target="fJRGCosen_SZIZIRIXQ9-1">
          <mxGeometry relative="1" as="geometry" />
        </mxCell>
        <mxCell id="fJRGCosen_SZIZIRIXQ9-0" value="&lt;font style=&quot;font-size: 14px;&quot;&gt;Start&lt;/font&gt;" style="ellipse;whiteSpace=wrap;html=1;" vertex="1" parent="WIyWlLk6GJQsqaUBKTNV-1">
          <mxGeometry x="295" y="7" width="110" height="60" as="geometry" />
        </mxCell>
        <mxCell id="fJRGCosen_SZIZIRIXQ9-4" value="" style="edgeStyle=orthogonalEdgeStyle;rounded=0;orthogonalLoop=1;jettySize=auto;html=1;" edge="1" parent="WIyWlLk6GJQsqaUBKTNV-1" source="fJRGCosen_SZIZIRIXQ9-1" target="fJRGCosen_SZIZIRIXQ9-3">
          <mxGeometry relative="1" as="geometry" />
        </mxCell>
        <mxCell id="fJRGCosen_SZIZIRIXQ9-1" value="&lt;font style=&quot;font-size: 14px;&quot;&gt;Homepage Komponente erstellen&lt;/font&gt;" style="whiteSpace=wrap;html=1;" vertex="1" parent="WIyWlLk6GJQsqaUBKTNV-1">
          <mxGeometry x="260" y="100" width="180" height="75" as="geometry" />
        </mxCell>
        <mxCell id="fJRGCosen_SZIZIRIXQ9-6" value="" style="edgeStyle=orthogonalEdgeStyle;rounded=0;orthogonalLoop=1;jettySize=auto;html=1;" edge="1" parent="WIyWlLk6GJQsqaUBKTNV-1" source="fJRGCosen_SZIZIRIXQ9-3" target="fJRGCosen_SZIZIRIXQ9-5">
          <mxGeometry relative="1" as="geometry" />
        </mxCell>
        <mxCell id="fJRGCosen_SZIZIRIXQ9-3" value="&lt;font style=&quot;font-size: 14px;&quot;&gt;useState Hooks für &#39;time&#39; und &#39;currentEvent&#39; definieren&lt;/font&gt;" style="whiteSpace=wrap;html=1;" vertex="1" parent="WIyWlLk6GJQsqaUBKTNV-1">
          <mxGeometry x="260" y="200" width="180" height="70" as="geometry" />
        </mxCell>
        <mxCell id="fJRGCosen_SZIZIRIXQ9-13" value="" style="edgeStyle=orthogonalEdgeStyle;rounded=0;orthogonalLoop=1;jettySize=auto;html=1;" edge="1" parent="WIyWlLk6GJQsqaUBKTNV-1" source="fJRGCosen_SZIZIRIXQ9-5" target="fJRGCosen_SZIZIRIXQ9-12">
          <mxGeometry relative="1" as="geometry" />
        </mxCell>
        <mxCell id="fJRGCosen_SZIZIRIXQ9-5" value="&lt;font style=&quot;font-size: 14px;&quot;&gt;useEffect Hook für Aktualisierung der &#39;time&#39; definieren&lt;/font&gt;" style="whiteSpace=wrap;html=1;" vertex="1" parent="WIyWlLk6GJQsqaUBKTNV-1">
          <mxGeometry x="260" y="320" width="180" height="60" as="geometry" />
        </mxCell>
        <mxCell id="fJRGCosen_SZIZIRIXQ9-15" value="" style="edgeStyle=orthogonalEdgeStyle;rounded=0;orthogonalLoop=1;jettySize=auto;html=1;" edge="1" parent="WIyWlLk6GJQsqaUBKTNV-1" source="fJRGCosen_SZIZIRIXQ9-12" target="fJRGCosen_SZIZIRIXQ9-14">
          <mxGeometry relative="1" as="geometry" />
        </mxCell>
        <mxCell id="fJRGCosen_SZIZIRIXQ9-12" value="&lt;font style=&quot;font-size: 14px;&quot;&gt;Begrüßungsnachricht erstellen&lt;/font&gt;" style="whiteSpace=wrap;html=1;" vertex="1" parent="WIyWlLk6GJQsqaUBKTNV-1">
          <mxGeometry x="260" y="410" width="180" height="60" as="geometry" />
        </mxCell>
        <mxCell id="fJRGCosen_SZIZIRIXQ9-17" value="" style="edgeStyle=orthogonalEdgeStyle;rounded=0;orthogonalLoop=1;jettySize=auto;html=1;" edge="1" parent="WIyWlLk6GJQsqaUBKTNV-1" source="fJRGCosen_SZIZIRIXQ9-14" target="fJRGCosen_SZIZIRIXQ9-16">
          <mxGeometry relative="1" as="geometry" />
        </mxCell>
        <mxCell id="fJRGCosen_SZIZIRIXQ9-14" value="&lt;font style=&quot;font-size: 14px;&quot;&gt;SchedulerNow Komponente einbinden und &lt;br&gt;&#39;currentEvent&#39; aktualisieren&lt;/font&gt;" style="whiteSpace=wrap;html=1;" vertex="1" parent="WIyWlLk6GJQsqaUBKTNV-1">
          <mxGeometry x="260" y="500" width="180" height="70" as="geometry" />
        </mxCell>
        <mxCell id="fJRGCosen_SZIZIRIXQ9-19" value="" style="edgeStyle=orthogonalEdgeStyle;rounded=0;orthogonalLoop=1;jettySize=auto;html=1;" edge="1" parent="WIyWlLk6GJQsqaUBKTNV-1" source="fJRGCosen_SZIZIRIXQ9-16" target="fJRGCosen_SZIZIRIXQ9-18">
          <mxGeometry relative="1" as="geometry" />
        </mxCell>
        <mxCell id="fJRGCosen_SZIZIRIXQ9-16" value="&lt;font style=&quot;font-size: 14px;&quot;&gt;FoodNow Komponente einbinden&lt;br&gt;&lt;/font&gt;" style="whiteSpace=wrap;html=1;" vertex="1" parent="WIyWlLk6GJQsqaUBKTNV-1">
          <mxGeometry x="260" y="600" width="180" height="70" as="geometry" />
        </mxCell>
        <mxCell id="fJRGCosen_SZIZIRIXQ9-21" value="" style="edgeStyle=orthogonalEdgeStyle;rounded=0;orthogonalLoop=1;jettySize=auto;html=1;entryX=0.5;entryY=0;entryDx=0;entryDy=0;" edge="1" parent="WIyWlLk6GJQsqaUBKTNV-1" source="fJRGCosen_SZIZIRIXQ9-18" target="fJRGCosen_SZIZIRIXQ9-22">
          <mxGeometry relative="1" as="geometry">
            <mxPoint x="350" y="845" as="targetPoint" />
          </mxGeometry>
        </mxCell>
        <mxCell id="fJRGCosen_SZIZIRIXQ9-18" value="&lt;font style=&quot;&quot;&gt;&lt;font style=&quot;font-size: 14px;&quot;&gt;Aktuelles Datum und Uhrzeit anzeigen&lt;/font&gt;&lt;br&gt;&lt;/font&gt;" style="whiteSpace=wrap;html=1;" vertex="1" parent="WIyWlLk6GJQsqaUBKTNV-1">
          <mxGeometry x="260" y="700" width="180" height="70" as="geometry" />
        </mxCell>
        <mxCell id="fJRGCosen_SZIZIRIXQ9-22" value="&lt;font style=&quot;font-size: 14px;&quot;&gt;Ende&lt;/font&gt;" style="ellipse;whiteSpace=wrap;html=1;" vertex="1" parent="WIyWlLk6GJQsqaUBKTNV-1">
          <mxGeometry x="295" y="820" width="110" height="60" as="geometry" />
        </mxCell>
      </root>
    </mxGraphModel>
  </diagram>
</mxfile>
